<?xml version="1.0" standalone="no"?>
<!DOCTYPE svg PUBLIC "-//W3C//DTD SVG 20010904//EN"
 "http://www.w3.org/TR/2001/REC-SVG-20010904/DTD/svg10.dtd">
<svg version="1.0" xmlns="http://www.w3.org/2000/svg"
 width="229.000000pt" height="229.000000pt" viewBox="0 0 229.000000 229.000000"
 preserveAspectRatio="xMidYMid meet">
<metadata>
Created by potrace 1.11, written by Peter Selinger 2001-2013
</metadata>
<g transform="translate(0.000000,229.000000) scale(0.100000,-0.100000)"
fill="#000000" stroke="none">
<path d="M0 1145 l0 -1145 1145 0 1145 0 0 1145 0 1145 -1145 0 -1145 0 0
-1145z m740 608 l145 -237 3 237 2 237 35 0 35 0 0 -296 0 -295 -41 3 -41 3
-147 237 -146 237 -3 -240 -2 -239 -35 0 -35 0 0 295 0 295 43 0 42 -1 145
-236z m750 -58 l0 -295 -35 0 -35 0 0 295 0 295 35 0 35 0 0 -295z m-709 -816
c52 -18 93 -53 119 -103 14 -25 22 -47 20 -49 -3 -3 -19 -8 -36 -11 -27 -6
-33 -3 -55 30 -43 66 -109 96 -174 80 -46 -12 -103 -73 -120 -129 -46 -154 13
-322 121 -345 87 -19 159 15 184 86 13 38 17 42 49 42 l34 0 -6 -42 c-10 -75
-69 -129 -163 -148 -159 -33 -275 56 -304 234 -18 117 13 240 77 302 62 58
170 81 254 53z m619 -136 l0 -138 138 138 c138 138 139 138 181 135 l42 -3
-124 -130 -124 -130 133 -157 c74 -87 134 -160 134 -163 0 -3 -19 -5 -42 -5
-43 0 -43 1 -153 135 -60 74 -115 134 -121 134 -5 1 -22 -12 -37 -27 -26 -27
-27 -33 -27 -135 l0 -107 -35 0 -35 0 0 295 0 295 35 0 35 0 0 -137z"/>
</g>
</svg>
