<?xml version="1.0" standalone="no"?>
<!DOCTYPE svg PUBLIC "-//W3C//DTD SVG 20010904//EN"
 "http://www.w3.org/TR/2001/REC-SVG-20010904/DTD/svg10.dtd">
<svg version="1.0" xmlns="http://www.w3.org/2000/svg"
 width="100.000000pt" height="100.000000pt" viewBox="0 0 100.000000 100.000000"
 preserveAspectRatio="xMidYMid meet">
<metadata>
Created by potrace 1.11, written by Peter Selinger 2001-2013
</metadata>
<g transform="translate(0.000000,100.000000) scale(0.100000,-0.100000)"
fill="#000000" stroke="none">
<path d="M0 515 l0 -315 500 0 500 0 0 315 0 315 -500 0 -500 0 0 -315z m234
174 c2 -2 34 -53 71 -114 38 -60 72 -114 77 -120 6 -6 9 20 8 65 -1 41 -1 98
-1 126 1 54 -1 53 56 45 6 0 9 -38 8 -93 -1 -51 -2 -130 -3 -174 0 -69 -3 -82
-17 -86 -42 -10 -43 -8 -148 164 -25 43 -50 80 -54 82 -4 3 -7 -50 -6 -116 l0
-122 -27 -7 c-15 -4 -29 -4 -32 -1 -8 7 -8 347 -1 354 6 6 64 3 69 -3z m571
-20 c13 -13 26 -35 27 -48 3 -20 -2 -25 -24 -26 -19 -1 -32 5 -43 22 -30 45
-137 21 -108 -25 5 -10 39 -29 74 -44 89 -37 119 -65 119 -115 0 -58 -42 -95
-113 -101 -85 -7 -149 31 -162 97 -3 18 1 21 31 21 23 0 34 -5 34 -14 0 -21
40 -46 73 -46 60 0 87 40 50 72 -10 8 -49 27 -86 42 -74 31 -97 55 -97 101 0
63 55 98 143 92 45 -3 63 -9 82 -28z"/>
</g>
</svg>
