<?xml version="1.0" standalone="no"?>
<!DOCTYPE svg PUBLIC "-//W3C//DTD SVG 20010904//EN"
 "http://www.w3.org/TR/2001/REC-SVG-20010904/DTD/svg10.dtd">
<svg version="1.0" xmlns="http://www.w3.org/2000/svg"
 width="291.000000pt" height="377.000000pt" viewBox="0 0 291.000000 377.000000"
 preserveAspectRatio="xMidYMid meet">
<metadata>
Created by potrace 1.15, written by Peter Selinger 2001-2017
</metadata>
<g transform="translate(0.000000,377.000000) scale(0.100000,-0.100000)"
fill="#000000" stroke="none">
<path d="M1330 3764 c-453 -54 -807 -259 -1062 -615 -116 -162 -210 -392 -243
-597 -22 -130 -16 -490 10 -652 92 -579 378 -1085 837 -1484 145 -125 336
-266 481 -354 l105 -64 108 68 c770 475 1200 1088 1321 1881 11 75 16 178 17
333 0 196 -3 238 -21 322 -68 301 -190 527 -402 739 -214 214 -448 339 -745
400 -97 20 -326 33 -406 23z m150 -1859 l0 -1515 -25 0 -25 0 0 305 0 305 -29
0 c-15 0 -84 -4 -152 -10 -305 -23 -553 -34 -547 -24 7 11 118 274 118 279 0
2 -102 86 -226 187 -125 101 -276 223 -337 272 l-109 89 43 36 c24 20 57 48
73 62 l30 26 -51 199 c-28 109 -50 201 -48 203 3 2 77 -2 166 -9 89 -7 165 -8
169 -4 5 5 27 56 50 114 23 58 45 108 49 112 3 4 100 -89 215 -208 115 -118
210 -214 211 -212 1 2 -8 68 -20 148 -33 209 -74 488 -81 540 -6 49 -22 149
-30 193 -3 15 -2 27 3 27 5 0 69 -38 143 -85 74 -46 135 -83 136 -82 2 2 190
406 232 500 17 37 33 67 36 67 3 0 6 -682 6 -1515z m1277 303 c-6 -105 -40
-261 -77 -356 -168 -435 -558 -753 -1010 -827 -141 -22 -140 -23 -140 26 0 77
31 253 62 349 62 195 159 358 304 510 152 158 322 267 525 334 108 37 234 64
303 65 l39 1 -6 -102z"/>
</g>
</svg>
