<svg xmlns="http://www.w3.org/2000/svg" xmlns:xlink="http://www.w3.org/1999/xlink" version="1.1" id="Layer_1" x="0px" y="0px" width="290px" height="65px" viewBox="0 0 290 65" enable-background="new 0 0 290 65" xml:space="preserve">
<path fill="#000000" d="M196.7,42.2h1.3V22.5h-1.3V42.2z M221,22.5l-6.9,18.1l-7.5-18.1h-1.4l8.3,19.7h1.4l7.5-19.7H221z   M229.6,42.2h1.3V22.5h-1.3V42.2z M248.2,22.1c-2.1,0-4.1,0.7-5.8,1.9h-1.4c-0.4-0.9-1.4-1.5-2.3-1.5h-0.6v1.3h0.6  c1.5,0,1.7,2.5,1.7,3.4v15.1h1.3V27.1c0-0.1,0-0.9-0.2-1.8h1.3c1.7-1.3,3.6-1.9,5.4-1.9h0.4c3.9,0.3,6.5,3.6,6.5,8.2v10.7h1.3V31.5  c0-5.3-3.1-9.4-7.7-9.4H248.2z M264.8,32.5v-0.3c0-4.9,4-8.9,8.8-8.9h0.2c1.9,0,3.7,0.6,5.4,1.9h1.4c-0.2,0.8-0.2,1.4-0.2,1.9v12.3  h-1.2c-1.7,1.3-3.5,1.9-5.4,1.9h-0.2C268.8,41.4,264.8,37.4,264.8,32.5 M273.6,22.1c-5.5,0-10,4.5-10,10.1v0.3  c0,5.6,4.5,10.1,10,10.1h0.2c2.1,0,4.1-0.7,5.8-1.9h0.9v1.2c0,4.5-3.9,6.7-6.8,6.7h-0.2c-3.3,0-6.1-1.8-7.6-4.5h-1.4  c1.6,3.4,5.1,5.8,9.1,5.8h0.2c3.7,0,8.1-2.7,8.1-7.9V27.1c0-0.8,0.1-3.4,1.7-3.4h0.6v-1.3h-0.6c-1,0-1.9,0.5-2.3,1.5h-1.5  c-1.7-1.2-3.7-1.9-5.8-1.9H273.6z M43.4,22.4c-0.6,0.5-1.3,1.2-1.9,2.3v-3h-5.2v20.5h5.4V31.1c0-1.3,0.2-2.3,0.5-3.1  c0.7-1.5,1.9-2.3,3.7-2.3c1.5,0,2.5,0.5,3,1.6c0.3,0.6,0.4,1.4,0.4,2.5v12.5h5.5V28.4c0-2.6-0.7-4.4-2-5.5c-1.3-1.1-3.1-1.7-5.2-1.7  C45.9,21.2,44.5,21.6,43.4,22.4 M63.2,35.2c-0.4-0.9-0.6-2-0.6-3.2c0-1.4,0.2-2.5,0.6-3.5c0.7-1.8,2-2.7,3.9-2.7  c1.4,0,2.5,0.5,3.3,1.5c0.8,1,1.2,2.5,1.2,4.4c0,2.1-0.4,3.6-1.3,4.5c-0.9,0.9-1.9,1.4-3.2,1.4C65.2,37.8,63.9,36.9,63.2,35.2   M59.3,24.3C57.8,26.4,57,28.9,57,32c0,3.2,0.8,5.7,2.4,7.5c1.6,1.9,3.7,2.8,6.3,2.8c1.7,0,3.1-0.4,4.2-1.2c0.6-0.4,1.1-1.1,1.7-2  v1.3c0,2-0.2,3.4-0.6,4.2c-0.7,1.3-1.9,1.9-3.9,1.9c-1.4,0-2.3-0.2-2.9-0.7c-0.3-0.3-0.6-0.7-0.7-1.4h-5.8c0.2,2,1.1,3.6,2.7,4.6  c1.7,1,3.8,1.5,6.4,1.5c4.3,0,7.3-1.2,8.8-3.5c0.9-1.3,1.3-3.3,1.3-6V21.7h-5.2v3c-0.8-1.4-1.9-2.4-3.2-3c-0.8-0.3-1.7-0.5-2.7-0.5  C62.9,21.2,60.8,22.2,59.3,24.3 M129,38.3c-0.5-0.4-0.8-1.1-0.8-2c0-1,0.4-1.8,1.3-2.3c0.5-0.3,1.3-0.5,2.5-0.7l1.2-0.2  c0.6-0.1,1.1-0.2,1.4-0.4c0.4-0.1,0.7-0.3,1-0.5v2c0,1.8-0.6,3-1.5,3.7c-1,0.7-2.1,1-3.2,1C130.1,38.9,129.5,38.7,129,38.3   M125,23.9c-0.9,1.2-1.4,2.6-1.5,4.4h5.2c0.1-0.8,0.4-1.4,0.8-1.9c0.5-0.6,1.4-0.9,2.7-0.9c1.1,0,2,0.2,2.6,0.5  c0.6,0.3,0.9,0.9,0.9,1.7c0,0.7-0.4,1.2-1.2,1.5c-0.4,0.2-1.1,0.3-2.1,0.5l-1.8,0.2c-2.1,0.3-3.7,0.7-4.7,1.3c-2,1.1-2.9,3-2.9,5.5  c0,1.9,0.6,3.4,1.8,4.5c1.2,1.1,2.8,1.6,4.6,1.6c1.5,0,2.8-0.3,3.9-1c1-0.6,1.8-1.2,2.6-2.1c0,0.5,0.1,0.9,0.2,1.2  c0.1,0.4,0.2,0.8,0.3,1.2h5.8v-0.8c-0.4-0.2-0.6-0.4-0.8-0.6c-0.2-0.3-0.3-0.7-0.3-1.4c0-0.9,0-1.7,0-2.4v-9.4c0-2.5-0.9-4.2-2.6-5  c-1.8-0.9-3.8-1.3-6-1.3C128.9,21.2,126.4,22.1,125,23.9 M151.4,22.4c-0.6,0.5-1.3,1.4-2.2,2.8v-3.6h-5.1v20.5h5.4v-9.8  c0-1.6,0.2-2.9,0.6-3.7c0.7-1.4,2.2-2.1,4.3-2.1c0.2,0,0.4,0,0.6,0c0.3,0,0.6,0,0.9,0.1v-5.5c-0.2,0-0.4,0-0.5,0c-0.1,0-0.2,0-0.3,0  C153.7,21.2,152.4,21.6,151.4,22.4 M19.9,36.7c-0.8-1.1-1.3-2.7-1.3-4.8c0-2.1,0.4-3.6,1.3-4.7c0.8-1.1,2.1-1.7,3.6-1.7  c1.6,0,2.8,0.6,3.6,1.7c0.8,1.1,1.3,2.7,1.3,4.7c0,2.1-0.4,3.6-1.3,4.8c-0.8,1.1-2,1.7-3.6,1.7C21.9,38.4,20.7,37.8,19.9,36.7   M15.6,24.2C13.9,26.4,13,29,13,31.9c0,3,0.9,5.6,2.6,7.7c1.7,2.1,4.4,3.2,7.9,3.2c3.5,0,6.2-1.1,7.9-3.2c1.7-2.1,2.6-4.7,2.6-7.7  c0-3-0.9-5.5-2.6-7.7C29.6,22.1,27,21,23.5,21C20,21,17.3,22.1,15.6,24.2 M107.8,36.7c-0.8-1.1-1.3-2.7-1.3-4.8  c0-2.1,0.4-3.6,1.3-4.7c0.8-1.1,2.1-1.7,3.6-1.7c1.6,0,2.8,0.6,3.6,1.7c0.8,1.1,1.3,2.7,1.3,4.7c0,2.1-0.4,3.6-1.3,4.8  c-0.8,1.1-2,1.7-3.6,1.7C109.9,38.4,108.7,37.8,107.8,36.7 M103.6,24.2c-1.7,2.2-2.6,4.7-2.6,7.7c0,3,0.9,5.6,2.6,7.7  c1.7,2.1,4.4,3.2,7.9,3.2c3.5,0,6.2-1.1,7.9-3.2c1.7-2.1,2.6-4.7,2.6-7.7c0-3-0.9-5.5-2.6-7.7c-1.7-2.2-4.4-3.3-7.9-3.3  C107.9,21,105.3,22.1,103.6,24.2 M188.3,42.2h1.3v-27h-1.3V42.2z M196.7,18.9h1.3v-3.7h-1.3V18.9z M229.6,18.9h1.3v-3.7h-1.3V18.9z   M86.5,36.6c-0.8-1.2-1.2-2.6-1.2-4.4c0-1.5,0.2-2.7,0.6-3.7c0.7-1.8,2.1-2.7,4-2.7c1.9,0,3.3,0.9,4,2.7c0.4,1,0.6,2.2,0.6,3.6  c0,1.8-0.4,3.3-1.2,4.4c-0.8,1.1-1.9,1.7-3.2,1.7C88.4,38.3,87.2,37.7,86.5,36.6 M80.1,14.5v27.7h5.3v-2.6c0.7,1,1.4,1.7,2,2.1  c1,0.7,2.4,1,4.1,1c2.7,0,4.8-1,6.3-3.1c1.5-2.1,2.3-4.7,2.3-7.9c0-3.1-0.8-5.6-2.3-7.5c-1.5-1.9-3.7-2.9-6.4-2.9  c-1.5,0-2.7,0.3-3.7,0.9c-0.8,0.5-1.6,1.2-2.3,2.2v-9.9H80.1z M162.9,36.6c-0.7-1.1-1.1-2.7-1.1-4.5c0-1.8,0.4-3.2,1.1-4.4  c0.7-1.2,1.9-1.8,3.5-1.8c1,0,1.9,0.3,2.7,1c1.3,1.1,1.9,2.9,1.9,5.4c0,1.8-0.4,3.3-1.2,4.4c-0.8,1.1-1.9,1.7-3.5,1.7  C164.8,38.3,163.7,37.7,162.9,36.6 M170.8,14.5v9.8c-0.6-1-1.4-1.7-2.4-2.3c-1-0.5-2.1-0.8-3.3-0.8c-2.7,0-4.9,1-6.5,3  c-1.6,2-2.4,4.8-2.4,8.3c0,3,0.8,5.5,2.5,7.5c1.6,1.9,3.7,2.9,6,2.9c1.5,0,2.7-0.3,3.6-0.8c1-0.6,1.8-1.4,2.6-2.7v2.8h5.2V14.5  H170.8z M5.2,42.2h5.4V14.4H5.2V42.2z"/>
</svg>