<?xml version="1.0" standalone="no"?>
<!DOCTYPE svg PUBLIC "-//W3C//DTD SVG 20010904//EN"
 "http://www.w3.org/TR/2001/REC-SVG-20010904/DTD/svg10.dtd">
<svg version="1.0" xmlns="http://www.w3.org/2000/svg"
 width="1000.000000pt" height="1000.000000pt" viewBox="0 0 1000.000000 1000.000000"
 preserveAspectRatio="xMidYMid meet">
<metadata>
Created by potrace 1.11, written by Peter Selinger 2001-2013
</metadata>
<g transform="translate(0.000000,1000.000000) scale(0.100000,-0.100000)"
fill="#000000" stroke="none">
<path d="M4716 9989 c-1077 -62 -2102 -469 -2941 -1170 -137 -115 -396 -369
-525 -516 -322 -366 -602 -796 -795 -1223 -719 -1584 -576 -3401 380 -4845
923 -1393 2491 -2235 4165 -2235 1917 0 3670 1100 4501 2825 258 535 407 1064
476 1685 24 220 24 741 0 975 -148 1415 -854 2666 -1982 3515 -933 701 -2108
1056 -3279 989z m2336 -2424 c79 -9 153 -18 166 -21 l22 -4 0 -581 0 -582 -37
7 c-269 47 -547 65 -693 45 -179 -24 -274 -44 -368 -76 -430 -148 -682 -472
-772 -993 -11 -63 -20 -123 -20 -132 0 -17 26 -18 415 -18 l415 0 0 -370 0
-370 -425 0 -425 0 2 -532 3 -533 423 -3 422 -2 -2 -408 -3 -407 -1397 -3
-1398 -2 0 410 0 410 423 2 422 3 3 533 2 532 -425 0 -425 0 0 370 0 370 420
0 420 0 0 715 0 715 -420 0 -420 0 0 410 0 410 925 0 925 0 0 -495 c0 -272 3
-495 8 -495 4 0 17 28 30 63 32 89 126 261 202 369 78 113 275 312 386 390
313 223 747 321 1196 273z"/>
</g>
</svg>
